<svg width="38" height="41" viewBox="0 0 38 41" fill="none" xmlns="http://www.w3.org/2000/svg">
<path d="M19 0C15.46 0 12.34 2.34 11.34 5.74C10.28 5.26 9.16 5 8 5C5.87827 5 3.84344 5.84285 2.34315 7.34315C0.842854 8.84344 0 10.8783 0 13C0.00473861 14.7717 0.595988 16.4919 1.68144 17.8921C2.76689 19.2924 4.28544 20.2938 6 20.74V35H32V20.74C35.52 19.82 38 16.64 38 13C38 10.8783 37.1571 8.84344 35.6569 7.34315C34.1566 5.84285 32.1217 5 30 5C28.84 5 27.72 5.26 26.66 5.74C25.66 2.34 22.54 0 19 0ZM18 18H20V32H18V18ZM12 22H14V32H12V22ZM24 22H26V32H24V22ZM6 37V39C6 39.5304 6.21071 40.0391 6.58579 40.4142C6.96086 40.7893 7.46957 41 8 41H30C30.5304 41 31.0391 40.7893 31.4142 40.4142C31.7893 40.0391 32 39.5304 32 39V37H6Z" fill="white"/>
</svg>
