<svg width="15" height="15" viewBox="0 0 25 25" fill="none" xmlns="http://www.w3.org/2000/svg">
<path fill-rule="evenodd" clip-rule="evenodd" d="M12.5142 15.8816L20.9334 24.3023C21.3801 24.749 21.986 25 22.6178 25C23.2496 25 23.8555 24.749 24.3023 24.3023C24.749 23.8556 25 23.2496 25 22.6178C25 21.986 24.749 21.3801 24.3023 20.9334L15.88 12.5143L24.3007 4.09515C24.5218 3.87394 24.6972 3.61135 24.8168 3.32237C24.9364 3.03339 24.9979 2.72368 24.9978 2.41092C24.9978 2.09816 24.9361 1.78848 24.8163 1.49956C24.6966 1.21063 24.5211 0.948125 24.2999 0.727023C24.0787 0.505921 23.8161 0.330554 23.5271 0.210934C23.2381 0.0913148 22.9284 0.0297851 22.6157 0.0298589C22.3029 0.0299326 21.9932 0.0916078 21.7043 0.211364C21.4154 0.33112 21.1529 0.506611 20.9318 0.727817L12.5142 9.14694L4.09512 0.727817C3.87555 0.500266 3.61286 0.318722 3.32237 0.193779C3.03189 0.0688363 2.71943 0.00299565 2.40323 9.98669e-05C2.08703 -0.00279592 1.77342 0.0573107 1.48069 0.176913C1.18797 0.296515 0.921999 0.473217 0.698296 0.696708C0.474594 0.9202 0.297641 1.18601 0.177763 1.47862C0.057885 1.77123 -0.00251726 2.08478 8.03599e-05 2.40098C0.00267798 2.71719 0.0682232 3.02971 0.192892 3.32031C0.317561 3.61091 0.498857 3.87377 0.726201 4.09356L9.1485 12.5143L0.727789 20.9334C0.281043 21.3801 0.0300634 21.986 0.0300634 22.6178C0.0300634 23.2496 0.281043 23.8556 0.727789 24.3023C1.17454 24.749 1.78045 25 2.41225 25C3.04404 25 3.64996 24.749 4.09671 24.3023L12.5142 15.88V15.8816Z" fill="black"/>
</svg>
