<svg width="140" height="128" viewBox="0 0 140 128" fill="none" xmlns="http://www.w3.org/2000/svg">
<ellipse cx="110.833" cy="57.2398" rx="29.1668" ry="57.2398" fill="#161616"/>
<ellipse cx="110.833" cy="61.2503" rx="25.5209" ry="45.9377" fill="white"/>
<path d="M104.404 112.901C108.34 107.098 110.964 99.6929 111.814 91.9988C112.664 84.3047 111.683 76.8182 109.046 70.8659C106.409 64.9137 102.286 60.88 97.4079 59.4797C92.5294 58.0795 87.2103 59.403 82.3934 63.2158L90.2569 91.5108L104.404 112.901Z" fill="#161616"/>
<path d="M92.6045 73.6462V79.8441V80.9379L92.9691 81.3025H93.3337L93.6982 80.5733L94.792 78.0212L96.9795 73.2816L99.5316 69.2712L102.448 65.9899L103.907 64.5315L105.365 63.8024L99.167 59.4274L97.7087 59.0628H96.9795L95.1566 63.4378L93.6982 68.1774L92.6045 73.6462Z" fill="white" stroke="white"/>
<ellipse cx="47.3953" cy="57.2398" rx="29.1668" ry="57.2398" fill="#161616"/>
<ellipse cx="47.3955" cy="61.2503" rx="25.5209" ry="45.9377" fill="white"/>
<path d="M40.9669 112.901C44.902 107.098 47.5269 99.6929 48.3766 91.9988C49.2262 84.3047 48.2457 76.8182 45.6088 70.8659C42.9719 64.9137 38.8489 60.88 33.9704 59.4797C29.0919 58.0795 23.7728 59.403 18.9559 63.2158L26.8194 91.5108L40.9669 112.901Z" fill="#161616"/>
<path d="M29.167 73.6462V79.8441V80.9379L29.5316 81.3025H29.8962L30.2607 80.5733L31.3545 78.0212L33.542 73.2816L36.0941 69.2712L39.0108 65.9899L40.4691 64.5315L41.9275 63.8024L35.7295 59.4274L34.2712 59.0628H33.542L31.7191 63.4378L30.2607 68.1774L29.167 73.6462Z" fill="white" stroke="white"/>
</svg>
